<?xml version="1.0" encoding="UTF-8"?>
<svg width="192px" height="21px" viewBox="0 0 192 21" version="1.1" xmlns="http://www.w3.org/2000/svg" xmlns:xlink="http://www.w3.org/1999/xlink">
    <!-- Generator: Sketch 64 (93537) - https://sketch.com -->
    <title>Group 74</title>
    <desc>Created with Sketch.</desc>
    <defs>
        <polygon id="path-1" points="0 34.7759984 191.321751 34.7759984 191.321751 0.022847999 0 0.022847999"></polygon>
    </defs>
    <g id="Page-1" stroke="none" stroke-width="1" fill="none" fill-rule="evenodd">
        <g id="home-newsletter-ativa" transform="translate(-382.000000, -37.000000)">
            <g id="Group-3">
                <g id="Group-16" transform="translate(323.000000, 27.000000)">
                    <g id="Group-74" transform="translate(59.000000, 10.000000)">
                        <polygon id="Fill-1" fill="#000000" points="88.6122848 14.2856106 87.2541729 13.1091066 93.3750846 6.04369893 94.7331966 7.22020288"></polygon>
                        <path d="M87.5504745,13.087905 L88.5910664,13.989393 L94.4367942,7.24133728 L93.3962022,6.33984932 L87.5504745,13.087905 Z M88.6334024,14.5817609 L86.9579385,13.130241 L93.3538662,5.74748134 L95.0294982,7.19900128 L88.6334024,14.5817609 Z" id="Fill-2" fill="#000000"></path>
                        <polygon id="Fill-3" fill="#000000" points="93.3750174 14.2856106 87.2541057 7.22020288 88.6122176 6.04369893 94.7331294 13.1091066"></polygon>
                        <path d="M87.5504745,7.24138768 L93.3962022,13.9894434 L94.4367942,13.0879554 L88.5910664,6.33989972 L87.5504745,7.24138768 Z M93.3538662,14.5818113 L86.9579385,7.19905168 L88.6334024,5.74753174 L95.0294982,13.1302914 L93.3538662,14.5818113 Z" id="Fill-4" fill="#000000"></path>
                        <polygon id="Fill-5" fill="#000000" points="11.7980683 0.731824767 11.7980683 2.67222468 3.28147665 2.67222468 3.28147665 8.76323241 10.8817963 8.76323241 10.8817963 10.7039683 3.28147665 10.7039683 3.28147665 19.5978879 1.25993274 19.5978879 1.25993274 0.731824767"></polygon>
                        <path d="M1.55399993,19.3038711 L2.98737587,19.3038711 L2.98737587,10.4099515 L10.5876955,10.4099515 L10.5876955,9.0572156 L2.98737587,9.0572156 L2.98737587,2.37820789 L11.5041355,2.37820789 L11.5041355,1.02580795 L1.55399993,1.02580795 L1.55399993,19.3038711 Z M3.57537584,19.8918711 L0.965999957,19.8918711 L0.965999957,0.43780798 L12.0921355,0.43780798 L12.0921355,2.96620787 L3.57537584,2.96620787 L3.57537584,8.46921562 L11.1756955,8.46921562 L11.1756955,10.9979515 L3.57537584,10.9979515 L3.57537584,19.8918711 Z" id="Fill-6" fill="#000000"></path>
                        <path d="M24.2609125,13.0487778 L20.5684407,3.72326623 L16.8761368,13.0487778 L24.2609125,13.0487778 Z M25.0157365,14.9890097 L16.0947689,14.9890097 L14.261721,19.5979215 L12.1056091,19.5979215 L19.6520007,0.731858367 L21.4850486,0.731858367 L29.0584883,19.5979215 L26.8482804,19.5979215 L25.0157365,14.9890097 Z" id="Fill-7" fill="#000000"></path>
                        <path d="M17.3087536,12.7547778 L23.8283293,12.7547778 L20.5684575,4.5217702 L17.3087536,12.7547778 Z M24.6935293,13.3427778 L16.4435537,13.3427778 L20.5684575,2.92459427 L24.6935293,13.3427778 Z M27.0478812,19.3039215 L28.6237211,19.3039215 L21.2861534,1.02585835 L19.8510975,1.02585835 L12.5399058,19.3039215 L14.0623218,19.3039215 L15.8952017,14.6950097 L25.2153373,14.6950097 L27.0478812,19.3039215 Z M29.4931211,19.8919215 L26.6488812,19.8919215 L24.8163373,15.2830097 L16.2942017,15.2830097 L14.4613218,19.8919215 L11.6713459,19.8919215 L19.4531055,0.43785838 L21.6838094,0.43785838 L29.4931211,19.8919215 Z" id="Fill-8" fill="#000000"></path>
                        <polygon id="Fill-9" fill="#000000" points="60.7049325 0.731824767 60.7049325 2.67222468 52.1883409 2.67222468 52.1883409 8.54785642 59.7886605 8.54785642 59.7886605 10.4880883 52.1883409 10.4880883 52.1883409 17.657152 60.7049325 17.657152 60.7049325 19.5978879 50.166797 19.5978879 50.166797 0.731824767"></polygon>
                        <path d="M50.4608641,19.3038711 L60.4109997,19.3038711 L60.4109997,17.9511352 L51.8942401,17.9511352 L51.8942401,10.1942395 L59.4945597,10.1942395 L59.4945597,8.8418396 L51.8942401,8.8418396 L51.8942401,2.37820789 L60.4109997,2.37820789 L60.4109997,1.02580795 L50.4608641,1.02580795 L50.4608641,19.3038711 Z M60.9989997,19.8918711 L49.8728642,19.8918711 L49.8728642,0.43780798 L60.9989997,0.43780798 L60.9989997,2.96620787 L52.4822401,2.96620787 L52.4822401,8.25383963 L60.0825597,8.25383963 L60.0825597,10.7822395 L52.4822401,10.7822395 L52.4822401,17.3631352 L60.9989997,17.3631352 L60.9989997,19.8918711 Z" id="Fill-10" fill="#000000"></path>
                        <g id="Group-73" transform="translate(0.000000, 0.145152)">
                            <path d="M72.6015832,17.5119832 C74.6498391,17.5119832 76.159151,15.9761273 76.159151,14.0086794 C76.159151,12.0412315 74.5959111,10.5048715 72.6282952,10.5048715 L67.3729194,10.5048715 L67.3729194,17.5119832 L72.6015832,17.5119832 Z M71.8469272,8.80672761 C73.7065191,8.80672761 75.188951,7.37839167 75.188951,5.57272775 C75.188951,3.87458383 73.6794711,2.52705589 71.8469272,2.52705589 L67.3729194,2.52705589 L67.3729194,8.80672761 L71.8469272,8.80672761 Z M65.3515435,0.586655974 L71.9008552,0.586655974 C74.8655511,0.586655974 77.2372069,2.71571988 77.2372069,5.30291976 C77.2372069,7.32446367 75.862631,9.13012759 74.0300871,9.48057558 C76.401743,9.72316757 78.2342869,11.7714235 78.2342869,14.2512714 C78.2342869,17.1618712 75.781991,19.4527191 72.7094391,19.4527191 L65.3515435,19.4527191 L65.3515435,0.586655974 Z" id="Fill-11" fill="#000000"></path>
                            <path d="M67.6669194,8.51274442 L71.8469272,8.51274442 C73.5561591,8.51274442 74.8949511,7.22132848 74.8949511,5.57274455 C74.8949511,4.05553662 73.5275991,2.82107267 71.8469272,2.82107267 L67.6669194,2.82107267 L67.6669194,8.51274442 Z M71.8469272,9.10074439 L67.0789194,9.10074439 L67.0789194,2.2330727 L71.8469272,2.2330727 C73.8518391,2.2330727 75.482951,3.73129663 75.482951,5.57274455 C75.482951,7.55111246 73.8859431,9.10074439 71.8469272,9.10074439 L71.8469272,9.10074439 Z M67.6669194,17.218 L72.6015832,17.218 C74.4620151,17.218 75.865151,15.8382161 75.865151,14.0086962 C75.865151,12.2087443 74.4433671,10.7988883 72.6282952,10.7988883 L67.6669194,10.7988883 L67.6669194,17.218 Z M72.6015832,17.806 L67.0789194,17.806 L67.0789194,10.2108883 L72.6282952,10.2108883 C74.7731511,10.2108883 76.453151,11.8791283 76.453151,14.0086962 C76.453151,16.1735441 74.7973431,17.806 72.6015832,17.806 L72.6015832,17.806 Z M65.6455435,19.1587359 L72.7094391,19.1587359 C75.642719,19.1587359 77.9402869,17.003128 77.9402869,14.2512882 C77.9402869,11.9280163 76.246343,10.0027364 74.0001831,9.77308036 L72.0035032,9.56879237 L73.9748151,9.19180039 C75.667079,8.8680644 76.943207,7.19629648 76.943207,5.30293656 C76.943207,2.86458467 74.6812551,0.880672761 71.9008552,0.880672761 L65.6455435,0.880672761 L65.6455435,19.1587359 Z M72.7094391,19.7467359 L65.0575435,19.7467359 L65.0575435,0.292672787 L71.9008552,0.292672787 C75.005495,0.292672787 77.5312069,2.54034469 77.5312069,5.30293656 C77.5312069,7.07466448 76.544039,8.67956841 75.112847,9.41389638 C77.118767,10.0818643 78.5282869,12.0016003 78.5282869,14.2512882 C78.5282869,17.332744 75.972503,19.7467359 72.7094391,19.7467359 L72.7094391,19.7467359 Z" id="Fill-13" fill="#000000"></path>
                            <path d="M83.5817939,9.96575955 C83.5817939,14.3587914 86.8159617,17.7545752 90.9936175,17.7545752 C95.1709373,17.7545752 98.4051052,14.3587914 98.4051052,9.96575955 C98.4051052,5.62665575 95.1709373,2.2844639 90.9936175,2.2844639 C86.8159617,2.2844639 83.5817939,5.62665575 83.5817939,9.96575955 M100.507625,9.96575955 C100.507625,15.4637273 96.3570173,19.7220231 90.9936175,19.7220231 C85.6302178,19.7220231 81.47961,15.4637273 81.47961,9.96575955 C81.47961,4.5217198 85.6302178,0.316847986 90.9936175,0.316847986 C96.3570173,0.316847986 100.507625,4.5217198 100.507625,9.96575955" id="Fill-15" fill="#000000"></path>
                            <path d="M90.9936511,2.57839668 C87.0023073,2.57839668 83.8758275,5.82331654 83.8758275,9.96569235 C83.8758275,14.1685482 87.0023073,17.460508 90.9936511,17.460508 C94.984827,17.460508 98.1111388,14.1685482 98.1111388,9.96569235 C98.1111388,5.82331654 94.984827,2.57839668 90.9936511,2.57839668 M90.9936511,18.048508 C86.6725233,18.048508 83.2878275,14.4981642 83.2878275,9.96569235 C83.2878275,5.49353255 86.6725233,1.99039671 90.9936511,1.99039671 C95.3146109,1.99039671 98.6991388,5.49353255 98.6991388,9.96569235 C98.6991388,14.4981642 95.3146109,18.048508 90.9936511,18.048508 M90.9936511,0.610948773 C88.4783552,0.610948773 86.1490353,1.56804473 84.4347634,3.30634065 C82.7186435,5.04598057 81.7736435,7.41108447 81.7736435,9.96569235 C81.7736435,15.2718041 85.8236194,19.4281239 90.9936511,19.4281239 C96.1636829,19.4281239 100.213659,15.2718041 100.213659,9.96569235 C100.213659,7.41108447 99.2686588,5.04598057 97.5525388,3.30634065 C95.8382669,1.56804473 93.508947,0.610948773 90.9936511,0.610948773 M90.9936511,20.0161239 C85.4938354,20.0161239 81.1856436,15.6014201 81.1856436,9.96569235 C81.1856436,4.3902766 85.4938354,0.022948799 90.9936511,0.022948799 C96.4934669,0.022948799 100.801659,4.3902766 100.801659,9.96569235 C100.801659,15.6014201 96.4934669,20.0161239 90.9936511,20.0161239" id="Fill-17" fill="#000000"></path>
                            <path d="M160.291514,11.5827259 C160.10285,9.42661398 158.377827,7.86354205 156.032883,7.86354205 C153.715155,7.86354205 151.936371,9.31909398 151.478403,11.5827259 L160.291514,11.5827259 Z M162.366818,13.2536538 L151.397427,13.2536538 C151.586091,16.0296857 153.445683,17.9437096 156.194835,17.9437096 C158.270139,17.9437096 159.967946,16.9194136 160.318226,15.3024137 L162.285674,15.3024137 C161.773778,17.9704216 159.26705,19.7219895 156.140907,19.7219895 C152.340747,19.7219895 149.456859,16.7574617 149.456859,12.8223978 C149.456859,9.049286 152.394507,6.08475813 156.114027,6.08475813 C159.644546,6.08475813 162.393698,8.77998201 162.393698,12.4991658 C162.393698,12.6878298 162.393698,13.0922058 162.366818,13.2536538 L162.366818,13.2536538 Z" id="Fill-19" fill="#000000"></path>
                            <path d="M151.851161,11.2887259 L159.958001,11.2887259 C159.645521,9.42946998 158.075057,8.15754204 156.033017,8.15754204 C153.991817,8.15754204 152.385905,9.37436598 151.851161,11.2887259 L151.851161,11.2887259 Z M160.612361,11.8767259 L151.119017,11.8767259 L151.190249,11.5244299 C151.676273,9.12202999 153.577025,7.56954206 156.033017,7.56954206 C158.507321,7.56954206 160.379009,9.20938999 160.584305,11.5570219 L160.612361,11.8767259 Z M156.113993,6.37875811 C152.545841,6.37875811 149.750825,9.20922199 149.750825,12.8223978 C149.750825,16.5882857 152.497961,19.4279895 156.140873,19.4279895 C159.020897,19.4279895 161.292929,17.9030536 161.916377,15.5964137 L160.546001,15.5964137 C160.070561,17.1860296 158.357465,18.2377096 156.194801,18.2377096 C153.351737,18.2377096 151.305833,16.2428777 151.104065,13.2736458 L151.082729,12.9596538 L162.094121,12.9596538 C162.099665,12.7919898 162.099665,12.5957658 162.099665,12.4991658 C162.099665,9.009974 159.526409,6.37875811 156.113993,6.37875811 L156.113993,6.37875811 Z M156.140873,20.0159895 C152.162633,20.0159895 149.162825,16.9234456 149.162825,12.8223978 C149.162825,8.879438 152.216225,5.79075814 156.113993,5.79075814 C159.861737,5.79075814 162.687665,8.67464601 162.687665,12.4991658 C162.687665,12.8198778 162.683801,13.1390778 162.656753,13.3020378 L162.615761,13.5476538 L151.719785,13.5476538 C152.014121,16.0508537 153.742001,17.6497096 156.194801,17.6497096 C158.177033,17.6497096 159.718769,16.6813577 160.030913,15.2400857 L160.081145,15.0084137 L162.641465,15.0084137 L162.574433,15.3576857 C162.039857,18.1439656 159.454505,20.0159895 156.140873,20.0159895 L156.140873,20.0159895 Z" id="Fill-21" fill="#000000"></path>
                            <polygon id="Fill-23" fill="#000000" points="167.884005 8.18687483 167.884005 17.5931944 175.565133 17.5931944 175.565133 19.4527863 165.916389 19.4527863 165.916389 6.35399492 175.565133 6.35399492 175.565133 8.18687483"></polygon>
                            <path d="M166.210406,19.1587191 L175.27115,19.1587191 L175.27115,17.8871272 L167.590022,17.8871272 L167.590022,7.89280765 L175.27115,7.89280765 L175.27115,6.6480957 L166.210406,6.6480957 L166.210406,19.1587191 Z M175.85915,19.7467191 L165.622406,19.7467191 L165.622406,6.06009573 L175.85915,6.06009573 L175.85915,8.48080762 L168.178022,8.48080762 L168.178022,17.2991272 L175.85915,17.2991272 L175.85915,19.7467191 Z" id="Fill-25" fill="#000000"></path>
                            <mask id="mask-2" fill="white">
                                <use xlink:href="#path-1"></use>
                            </mask>
                            <g id="Clip-28"></g>
                            <path d="M181.54096,17.5931272 L189.087352,17.5931272 L189.087352,8.18680763 L181.54096,8.18680763 L181.54096,17.5931272 Z M179.573176,19.4527191 L191.027751,19.4527191 L191.027751,6.35409572 L179.573176,6.35409572 L179.573176,19.4527191 Z" id="Fill-27" fill="#000000" mask="url(#mask-2)"></path>
                            <path d="M181.83496,17.2991272 L188.793352,17.2991272 L188.793352,8.48080762 L181.83496,8.48080762 L181.83496,17.2991272 Z M181.24696,17.8871272 L189.381352,17.8871272 L189.381352,7.89280765 L181.24696,7.89280765 L181.24696,17.8871272 Z M179.867344,19.1587191 L190.733919,19.1587191 L190.733919,6.6480957 L179.867344,6.6480957 L179.867344,19.1587191 Z M179.279176,19.7467191 L191.321751,19.7467191 L191.321751,6.06009573 L179.279176,6.06009573 L179.279176,19.7467191 Z" id="Fill-29" fill="#000000" mask="url(#mask-2)"></path>
                            <polygon id="Fill-30" fill="#000000" mask="url(#mask-2)" points="45.5644204 0.586672774 42.9231245 0.586672774 34.5681489 8.40136042 34.5681489 0.586672774 32.5467729 0.586672774 32.5467729 19.4527359 34.5681489 19.4527359 34.5681489 10.3429363 43.0459325 10.3427683 43.0459325 19.4527359 45.0862924 19.4527359 45.0862924 8.40270442 37.4721967 8.40270442"></polygon>
                            <path d="M43.3398989,19.1587191 L44.7924268,19.1587191 L44.7924268,8.69668761 L36.7445552,8.69668761 L44.8367788,0.880655961 L43.0391789,0.880655961 L34.2741153,9.07888759 L34.2741153,0.880655961 L32.8407393,0.880655961 L32.8407393,19.1587191 L34.2741153,19.1587191 L34.2741153,10.0490876 L43.3398989,10.0487516 L43.3398989,19.1587191 Z M45.3804268,19.7467191 L42.7518989,19.7467191 L42.7518989,10.6367515 L34.8621152,10.6370875 L34.8621152,19.7467191 L32.2527394,19.7467191 L32.2527394,0.292655987 L34.8621152,0.292655987 L34.8621152,7.72379965 L42.8071709,0.292655987 L46.2919947,0.292655987 L38.1997711,8.10868764 L45.3804268,8.10868764 L45.3804268,19.7467191 Z" id="Fill-31" fill="#000000" mask="url(#mask-2)"></path>
                            <polygon id="Fill-32" fill="#000000" mask="url(#mask-2)" points="140.728218 0.586672774 138.086922 0.586672774 129.731946 8.40136042 129.731946 0.586672774 127.71057 0.586672774 127.71057 19.4527359 129.731946 19.4527359 129.731946 10.3429363 138.20973 10.3427683 138.20973 19.4527359 140.249922 19.4527359 140.249922 8.40270442 132.635994 8.40270442"></polygon>
                            <path d="M138.503696,19.1587191 L139.956056,19.1587191 L139.956056,8.69668761 L131.908353,8.69668761 L140.000576,0.880655961 L138.202976,0.880655961 L129.437913,9.07888759 L129.437913,0.880655961 L128.004537,0.880655961 L128.004537,19.1587191 L129.437913,19.1587191 L129.437913,10.0490876 L138.503696,10.0487516 L138.503696,19.1587191 Z M140.544056,19.7467191 L137.915696,19.7467191 L137.915696,10.6367515 L130.025913,10.6370875 L130.025913,19.7467191 L127.416537,19.7467191 L127.416537,0.292655987 L130.025913,0.292655987 L130.025913,7.72379965 L137.970968,0.292655987 L141.455792,0.292655987 L133.363568,8.10868764 L140.544056,8.10868764 L140.544056,19.7467191 Z" id="Fill-33" fill="#000000" mask="url(#mask-2)"></path>
                            <path d="M143.820627,18.159052 C143.820627,17.29654 144.494475,16.5959801 145.383699,16.5959801 C146.300139,16.5959801 146.973987,17.29654 146.973987,18.159052 C146.973987,19.0482759 146.300139,19.7221239 145.383699,19.7221239 C144.494475,19.7221239 143.820627,19.0482759 143.820627,18.159052" id="Fill-34" fill="#000000" mask="url(#mask-2)"></path>
                            <path d="M145.383649,16.8900136 C144.672169,16.8900136 144.114577,17.4474376 144.114577,18.1590856 C144.114577,18.8824936 144.660073,19.4279895 145.383649,19.4279895 C146.134777,19.4279895 146.679937,18.8944216 146.679937,18.1590856 C146.679937,17.4355096 146.122513,16.8900136 145.383649,16.8900136 M145.383649,20.0159895 C144.324913,20.0159895 143.526577,19.2176535 143.526577,18.1590856 C143.526577,17.1176536 144.342385,16.3020137 145.383649,16.3020137 C146.440201,16.3020137 147.267937,17.1176536 147.267937,18.1590856 C147.267937,19.2176535 146.458009,20.0159895 145.383649,20.0159895" id="Fill-35" fill="#000000" mask="url(#mask-2)"></path>
                            <path d="M106.259508,9.96575955 C106.259508,14.3587914 109.493676,17.7545752 113.671332,17.7545752 C117.848652,17.7545752 121.082819,14.3587914 121.082819,9.96575955 C121.082819,5.62665575 117.848652,2.2844639 113.671332,2.2844639 C109.493676,2.2844639 106.259508,5.62665575 106.259508,9.96575955 M123.185171,9.96575955 C123.185171,15.4637273 119.034563,19.7220231 113.671332,19.7220231 C108.307932,19.7220231 104.157324,15.4637273 104.157324,9.96575955 C104.157324,4.5217198 108.307932,0.316847986 113.671332,0.316847986 C119.034563,0.316847986 123.185171,4.5217198 123.185171,9.96575955" id="Fill-36" fill="#000000" mask="url(#mask-2)"></path>
                            <path d="M113.671349,2.57839668 C109.680005,2.57839668 106.553525,5.82331654 106.553525,9.96569235 C106.553525,14.1685482 109.680005,17.460508 113.671349,17.460508 C117.662524,17.460508 120.788836,14.1685482 120.788836,9.96569235 C120.788836,5.82331654 117.662524,2.57839668 113.671349,2.57839668 M113.671349,18.048508 C109.350221,18.048508 105.965525,14.4981642 105.965525,9.96569235 C105.965525,5.49353255 109.350221,1.99039671 113.671349,1.99039671 C117.992308,1.99039671 121.376836,5.49353255 121.376836,9.96569235 C121.376836,14.4981642 117.992308,18.048508 113.671349,18.048508 M113.671349,0.610948773 C111.156053,0.610948773 108.826733,1.56804473 107.112461,3.30634065 C105.396341,5.04598057 104.451341,7.41108447 104.451341,9.96569235 C104.451341,15.2718041 108.501317,19.4281239 113.671349,19.4281239 C118.841212,19.4281239 122.891188,15.2718041 122.891188,9.96569235 C122.891188,7.41108447 121.946188,5.04598057 120.230068,3.30634065 C118.515796,1.56804473 116.186476,0.610948773 113.671349,0.610948773 M113.671349,20.0161239 C108.171533,20.0161239 103.863341,15.6014201 103.863341,9.96569235 C103.863341,4.3902766 108.171533,0.022948799 113.671349,0.022948799 C119.170996,0.022948799 123.479188,4.3902766 123.479188,9.96569235 C123.479188,15.6014201 119.170996,20.0161239 113.671349,20.0161239" id="Fill-37" fill="#000000" mask="url(#mask-2)"></path>
                            <polygon id="Fill-38" fill="#000000" mask="url(#mask-2)" points="112.363284 13.4481978 108.777996 9.74581396 110.068908 8.49589402 112.969932 11.4916699 117.15834 6.6294141 118.519812 7.80222205 113.689476 13.4095578"></polygon>
                            <path d="M109.193762,9.75256756 L112.484378,13.1505354 L113.551178,13.1194554 L118.105154,7.83299965 L117.189218,7.04407169 L112.982666,11.9273275 L110.062154,8.9115596 L109.193762,9.75256756 Z M112.24229,13.7459274 L108.36233,9.73912756 L110.075594,8.08012764 L112.957298,11.0559115 L117.127562,6.21482372 L118.934234,7.77134365 L113.827538,13.6997274 L112.24229,13.7459274 Z" id="Fill-39" fill="#000000" mask="url(#mask-2)"></path>
                        </g>
                    </g>
                </g>
            </g>
        </g>
    </g>
</svg>